# xmcd CD database file
# Copyright (C) 1995-1998 Ti Kan
#
# Track frame offsets:
#	150
#	20957
#	42062
#
# Disc length: 841 seconds
#
# Revision: 1
# Processed by: cddbd v1.4PL0 Copyright (c) Steve Scherf et al.
# Submitted via: CDex 1.30Release
#
DISCID=1f034703
DTITLE=Marc Cohn - Silver Thunderbird - single
DYEAR=1991
DGENRE=Blues
TTITLE0=silver thunderbird
TTITLE1=far away nearby
TTITLE2=blow on chillywind
EXTD=YEAR: 1991 ID3G:   0
EXTT0=
EXTT1=
EXTT2=
PLAYORDER=
